<svg xmlns="http://www.w3.org/2000/svg" xmlns:svg="http://www.w3.org/2000/svg" xmlns:xlink="http://www.w3.org/1999/xlink" id="svg4362" width="40" height="40" version="1.1" viewBox="0 0 40 40"><defs id="defs4364"><clipPath id="b-4"><use style="overflow:visible" id="use44" width="100%" height="100%" x="0" y="0" overflow="visible" xlink:href="#a"/></clipPath><clipPath id="b-73"><use style="overflow:visible" id="use8-9" width="100%" height="100%" x="0" y="0" overflow="visible" xlink:href="#a"/></clipPath><clipPath id="b-4-5"><use style="overflow:visible" id="use44-6" width="100%" height="100%" x="0" y="0" overflow="visible" xlink:href="#a"/></clipPath><clipPath id="b-73-2"><use style="overflow:visible" id="use8-9-4" width="100%" height="100%" x="0" y="0" overflow="visible" xlink:href="#a"/></clipPath><clipPath id="clipPath6072"><use style="overflow:visible" id="use6074" width="100%" height="100%" x="0" y="0" overflow="visible" xlink:href="#a"/></clipPath><clipPath id="clipPath6076"><use style="overflow:visible" id="use6078" width="100%" height="100%" x="0" y="0" overflow="visible" xlink:href="#a"/></clipPath><path id="a" d="M 0,0 24,0 24,24 0,24 Z"/><filter id="filter-1" width="2" height="2" x="-.5" y="-.5" filterUnits="objectBoundingBox"><feOffset id="feOffset4584" dx="0" dy="1" in="SourceAlpha" result="shadowOffsetOuter1"/><feGaussianBlur id="feGaussianBlur4586" in="shadowOffsetOuter1" result="shadowBlurOuter1" stdDeviation=".5"/><feColorMatrix id="feColorMatrix4588" in="shadowBlurOuter1" result="shadowMatrixOuter1" type="matrix" values="0 0 0 0 0 0 0 0 0 0 0 0 0 0 0 0 0 0 0.168 0"/><feOffset id="feOffset4590" dx="0" dy="0" in="SourceAlpha" result="shadowOffsetOuter2"/><feGaussianBlur id="feGaussianBlur4592" in="shadowOffsetOuter2" result="shadowBlurOuter2" stdDeviation=".5"/><feColorMatrix id="feColorMatrix4594" in="shadowBlurOuter2" result="shadowMatrixOuter2" type="matrix" values="0 0 0 0 0 0 0 0 0 0 0 0 0 0 0 0 0 0 0.084 0"/><feMerge id="feMerge4596"><feMergeNode id="feMergeNode4598" in="shadowMatrixOuter1"/><feMergeNode id="feMergeNode4600" in="shadowMatrixOuter2"/><feMergeNode id="feMergeNode4602" in="SourceGraphic"/></feMerge></filter><rect id="path-2" width="40" height="40" x="0" y="0" rx="2"/></defs><metadata id="metadata4367"/><g id="layer1" transform="translate(-257.03308,-295.509)"><g id="g4868"><path style="opacity:1;fill:#fff;fill-opacity:1;stroke:none;stroke-width:7;stroke-linecap:round;stroke-linejoin:round;stroke-miterlimit:4;stroke-dasharray:none;stroke-dashoffset:0;stroke-opacity:1" id="rect4829" d="m 259.03308,295.509 36,0 c 1.108,0 2,0.892 2,2 l 0,36 c 0,1.108 -0.892,2 -2,2 l -36,0 c -1.108,0 -2,-0.892 -2,-2 l 0,-36 c 0,-1.108 0.892,-2 2,-2 z"/><g id="logo_googleg_48dp-7" transform="translate(268.03308,306.509)" style="fill:none;fill-rule:evenodd;stroke:none;stroke-width:1"><path style="fill:#4285f4" id="Shape-6-9" d="m 17.64,9.2045455 c 0,-0.6381819 -0.05727,-1.2518182 -0.163636,-1.8409091 L 9,7.3636364 9,10.845 l 4.843636,0 C 13.635,11.97 13.000909,12.923182 12.047727,13.561364 l 0,2.258182 2.908637,0 C 16.658182,14.252727 17.64,11.945455 17.64,9.2045455 l 0,0 z"/><path style="fill:#34a853" id="path4620-2" d="m 9,18 c 2.43,0 4.467273,-0.805909 5.956364,-2.180454 l -2.908637,-2.258182 c -0.805909,0.54 -1.836818,0.859091 -3.047727,0.859091 -2.3440909,0 -4.3281818,-1.583182 -5.0359091,-3.710455 l -3.00681817,0 0,2.331818 C 2.4381818,15.983182 5.4818182,18 9,18 l 0,0 z"/><path style="fill:#fbbc05" id="path4622-0" d="M 3.9640909,10.71 C 3.7840909,10.17 3.6818182,9.5931818 3.6818182,9 c 0,-0.5931818 0.1022727,-1.17 0.2822727,-1.71 l 0,-2.3318182 -3.00681817,0 C 0.34772727,6.1731818 0,7.5477273 0,9 c 0,1.452273 0.34772727,2.826818 0.95727273,4.041818 L 3.9640909,10.71 l 0,0 z"/><path style="fill:#ea4335" id="path4624-8" d="m 9,3.5795455 c 1.321364,0 2.507727,0.4540909 3.440455,1.3459091 L 15.021818,2.3440909 C 13.463182,0.89181818 11.425909,0 9,0 5.4818182,0 2.4381818,2.0168182 0.95727273,4.9581818 L 3.9640909,7.29 C 4.6718182,5.1627273 6.6559091,3.5795455 9,3.5795455 l 0,0 z"/><path id="path4626-4" d="M 0,0 18,0 18,18 0,18 0,0 Z"/></g></g></g></svg>